<svg width="47" height="46" viewBox="0 0 47 46" xmlns="http://www.w3.org/2000/svg">
    <circle cx="23.25" cy="23.0002" r="23" fill="#FFE145"/>
    <path d="M23.25 46.0002C27.429 46.0039 31.5297 44.8655 35.1088 42.7081C35.4712 42.489 35.5874 42.0175 35.3683 41.6551C35.1492 41.2927 34.6777 41.1765 34.3153 41.3956C27.3257 45.5908 18.5631 45.465 11.6968 41.0709C4.83055 36.6768 1.04568 28.7727 1.92715 20.6686C2.80862 12.5644 8.20432 5.6589 15.8547 2.84374C16.2523 2.69787 16.4564 2.25731 16.3105 1.85972C16.1646 1.46213 15.7241 1.25807 15.3265 1.40394C4.85257 5.24125 -1.35802 16.0409 0.593298 27.0236C2.54462 38.0063 12.0953 46.0057 23.25 46.0002Z" fill="#313030"/>
    <path d="M30.6452 2.84374C36.701 5.06869 41.4358 9.89783 43.541 15.9962C45.6462 22.0946 44.8987 28.8163 41.5051 34.3031C41.3607 34.536 41.3516 34.8281 41.481 35.0695C41.6105 35.3109 41.8589 35.465 42.1327 35.4736C42.4065 35.4822 42.6641 35.344 42.8084 35.1112C46.4453 29.2326 47.2469 22.0304 44.9913 15.496C42.7358 8.96165 37.6623 3.7874 31.1735 1.40394C30.7759 1.25807 30.3353 1.46213 30.1895 1.85972C30.0436 2.25731 30.2477 2.69787 30.6452 2.84374Z" fill="#313030"/>
    <path d="M20.1833 14.2448V20.7239C19.3701 21.7993 19.1874 23.225 19.7033 24.4706C20.2192 25.7162 21.3564 26.5952 22.6918 26.7806L28.6665 32.7553L28.6711 32.7622L39.5133 43.6005C39.8009 43.8882 40.191 44.0499 40.5977 44.0499C41.0045 44.0499 41.3946 43.8882 41.6822 43.6005C44.0834 41.1986 42.6643 38.0805 36.2611 31.6743L33.0081 28.4213H33.0028L27.0266 22.4413C26.9357 21.8189 26.6918 21.2288 26.3167 20.7239V14.2433C27.7145 13.6365 28.6183 12.2573 28.6167 10.7335V2.30017C28.6209 1.68964 28.3765 1.10366 27.9397 0.677133C27.9034 0.637925 27.8639 0.601769 27.8216 0.569033C26.9505 -0.200159 25.6391 -0.187253 24.7833 0.598933C24.3594 0.207447 23.8017 -0.0068174 23.2247 0.000165465C22.6652 0.0123986 22.1286 0.224533 21.712 0.598166C20.8641 -0.181995 19.5654 -0.200806 18.6952 0.554466C18.1786 0.986775 17.881 1.62652 17.8833 2.30017V10.7335C17.8811 12.2579 18.785 13.6378 20.1833 14.2448ZM29.2147 31.1269L24.6446 26.5575C25.6365 26.1679 26.4215 25.3829 26.8112 24.3909L31.3767 28.9649L29.2147 31.1269ZM24.7833 19.4919C23.807 19.0585 22.6929 19.0585 21.7166 19.4919V14.5668H24.7833V19.4919ZM20.95 23.0002C20.95 21.7299 21.9797 20.7002 23.25 20.7002C24.5202 20.7002 25.55 21.7299 25.55 23.0002C25.55 24.2704 24.5202 25.3002 23.25 25.3002C21.9797 25.3002 20.95 24.2704 20.95 23.0002ZM40.5974 42.5165L30.298 32.2163L32.4661 30.0482L35.177 32.7583C42.7663 40.3476 41.4093 41.7069 40.5974 42.5165ZM19.4166 2.30017C19.4187 2.07391 19.5205 1.86009 19.6949 1.71597C19.9993 1.45653 20.4532 1.4794 20.7299 1.7681C20.8721 1.90847 20.9515 2.10038 20.95 2.30017V8.43351C20.95 8.85692 21.2932 9.20017 21.7166 9.20017C22.1401 9.20017 22.4833 8.85692 22.4833 8.43351V2.30017C22.4892 1.89987 22.7968 1.56882 23.1956 1.5335H23.3221C23.7152 1.57455 24.0145 1.90488 24.0167 2.30017V8.43351C24.0167 8.85692 24.3599 9.20017 24.7833 9.20017C25.2067 9.20017 25.55 8.85692 25.55 8.43351V2.30017C25.55 1.87675 25.8932 1.5335 26.3167 1.5335C26.7401 1.5335 27.0833 1.87675 27.0833 2.30017V10.7335C27.0839 11.7882 26.3657 12.7075 25.3422 12.9622C25.1602 13.012 24.972 13.036 24.7833 13.0335H21.7166C21.5213 13.0352 21.3267 13.0094 21.1386 12.9568C20.1236 12.6969 19.4144 11.7813 19.4166 10.7335V2.30017Z" fill="#313030"/>
    <path d="M16.2802 5.96028C16.104 5.5755 15.6493 5.40632 15.2644 5.58231C14.7377 5.82304 14.2309 6.09368 13.731 6.37811C13.7088 6.38885 13.685 6.38885 13.6636 6.40111C13.6421 6.41338 13.6245 6.43945 13.6015 6.45555C10.7542 8.12031 8.3847 10.4917 6.72215 13.3402C6.69677 13.364 6.67319 13.3896 6.65162 13.4169C6.63923 13.446 6.62898 13.476 6.62095 13.5066C3.23188 19.3999 3.23773 26.652 6.63629 32.5399C6.64395 32.5537 6.64319 32.5698 6.65162 32.5836C6.66005 32.5974 6.67922 32.6181 6.69225 32.6365C8.36958 35.5061 10.7599 37.8938 13.6314 39.5679C13.6444 39.5771 13.6521 39.5909 13.6666 39.5993C13.6884 39.6097 13.7106 39.6189 13.7333 39.6269C19.4469 42.9082 26.4472 43.0169 32.2598 39.9144C32.5087 39.7893 32.6702 39.5391 32.6816 39.2608C32.693 38.9825 32.5525 38.7199 32.3147 38.5749C32.0768 38.4298 31.7791 38.4252 31.5369 38.5628C29.2146 39.7985 26.6449 40.498 24.0166 40.6098V39.1002C24.0166 38.6768 23.6734 38.3336 23.25 38.3336C22.8265 38.3336 22.4833 38.6768 22.4833 39.1002V40.6144C19.9093 40.5051 17.3912 39.8289 15.1087 38.6341L15.8639 37.3269C16.003 37.0896 16.0043 36.7959 15.8673 36.5573C15.7303 36.3188 15.4759 36.1719 15.2008 36.1725C14.9257 36.1731 14.672 36.3211 14.536 36.5603L13.7824 37.8636C11.6135 36.4767 9.77192 34.6351 8.38505 32.4663L9.68839 31.7126C9.92755 31.5767 10.0755 31.323 10.0761 31.0478C10.0767 30.7727 9.92988 30.5184 9.69132 30.3814C9.45275 30.2443 9.15906 30.2456 8.92172 30.3848L7.61839 31.1399C6.42303 28.8581 5.74606 26.3405 5.63578 23.7669H7.14995C7.57337 23.7669 7.91662 23.4236 7.91662 23.0002C7.91662 22.5768 7.57337 22.2336 7.14995 22.2336H5.64498C5.75741 19.6618 6.43344 17.1461 7.62529 14.8644L8.92325 15.6142C9.16059 15.7533 9.45429 15.7546 9.69285 15.6176C9.93141 15.4805 10.0783 15.2262 10.0777 14.9511C10.0771 14.676 9.92908 14.4223 9.68992 14.2863L8.38659 13.5334C9.76979 11.362 11.6112 9.51929 13.7816 8.13455L14.536 9.43788C14.672 9.67704 14.9257 9.82501 15.2008 9.82562C15.4759 9.82622 15.7303 9.67937 15.8673 9.44081C16.0043 9.20225 16.003 8.90855 15.8639 8.67121L15.1133 7.36788C15.374 7.23218 15.6331 7.09418 15.9022 6.97075C16.284 6.79455 16.4526 6.34376 16.2802 5.96028Z" fill="#313030"/>
    <path d="M39.1085 32.3382C39.2875 32.4348 39.4974 32.4563 39.6922 32.3981C39.8871 32.3398 40.0508 32.2066 40.1474 32.0277C43.2659 26.2228 43.1645 19.2187 39.879 13.5065C39.871 13.4759 39.8607 13.446 39.8484 13.4168C39.8271 13.3896 39.8037 13.3639 39.7786 13.3402C38.1148 10.4912 35.744 8.11988 32.8955 6.4555C32.8725 6.4394 32.8579 6.41564 32.8333 6.40107C32.8113 6.39251 32.7887 6.38509 32.7659 6.37884C32.2691 6.09364 31.7623 5.823 31.2325 5.58227C30.8512 5.42573 30.4144 5.59871 30.2436 5.97387C30.0728 6.34903 30.2293 6.79208 30.5977 6.97684C30.8668 7.10027 31.126 7.23827 31.3866 7.37397L30.6361 8.6773C30.4969 8.91464 30.4956 9.20834 30.6327 9.4469C30.7697 9.68546 31.024 9.83231 31.2992 9.83171C31.5743 9.8311 31.828 9.68313 31.964 9.44397L32.7183 8.14064C34.8888 9.52538 36.7302 11.368 38.1134 13.5395L36.8101 14.2924C36.5709 14.4283 36.4229 14.682 36.4223 14.9572C36.4217 15.2323 36.5686 15.4866 36.8071 15.6237C37.0457 15.7607 37.3394 15.7594 37.5767 15.6202L38.8747 14.8704C40.0657 17.1503 40.7417 19.6638 40.855 22.2335H39.35C38.9266 22.2335 38.5834 22.5768 38.5834 23.0002C38.5834 23.4236 38.9266 23.7668 39.35 23.7668H40.8596C40.7495 26.401 40.0447 28.9762 38.798 31.2993C38.7014 31.4783 38.6799 31.6882 38.7381 31.8831C38.7963 32.0779 38.9296 32.2416 39.1085 32.3382Z" fill="#313030"/>
</svg>
