<svg width="47" height="48" viewBox="0 0 47 48" xmlns="http://www.w3.org/2000/svg">
    <path d="M46.05 20.2003C46.05 20.9003 46.05 21.5003 46.05 22.2003C46.05 22.3003 45.95 22.3003 45.95 22.4003C45.75 24.4003 45.05 26.3003 43.95 28.0003C43.15 29.3003 42.05 30.3003 41.05 31.4003C36.05 36.4003 30.95 41.3003 25.95 46.3003C25.55 46.7003 25.05 47.1003 24.55 47.5003C24.35 47.5003 24.25 47.5003 24.05 47.5003C23.85 47.3003 23.55 47.2003 23.35 47.0003C17.65 41.4003 11.95 35.8003 6.35002 30.2003C4.65002 28.5003 3.45002 26.4003 2.95002 24.1003C2.75002 23.4003 2.75002 22.8003 2.65002 22.1003C2.65002 21.4003 2.65002 20.8003 2.65002 20.1003C2.65002 19.8003 2.75002 19.5003 2.75002 19.2003C3.65002 13.3003 8.85002 8.60028 14.75 8.30028C17.35 8.20028 19.75 8.70028 22.05 9.90028C22.1934 10.0437 24.6813 10.0003 26.35 10.0003C26.45 10.0003 26.55 9.90028 26.65 9.80028C29.45 8.30028 32.55 7.70028 35.65 8.40028C40.85 9.60028 44.35 12.7003 45.75 18.0003C45.85 18.7003 45.95 19.5003 46.05 20.2003Z"
          fill="#FFE145"/>
    <path  d="M22.15 21.9003L21.25 26.1003H24.15L23.35 22.0003L22.15 21.9003Z"
          fill="white"/>
    <path 
          d="M23.85 9.70024C23.95 9.60024 24.05 9.60024 24.15 9.50024C25.95 8.50024 27.85 7.90024 29.95 7.80024C33.25 7.60024 36.25 8.60024 38.85 10.7002C41.55 12.9002 43.15 15.8002 43.65 19.2002C44.15 23.1002 43.05 26.5002 40.55 29.5002C39.35 30.9002 37.95 32.2002 36.55 33.6002C31.95 38.2002 27.45 42.7002 22.85 47.3002C22.15 48.0002 21.75 48.0002 21.05 47.3002C15.35 41.6002 9.75001 36.0002 4.05001 30.3002C1.75001 28.0002 0.450008 25.2002 0.250008 21.9002C-0.0499924 18.4002 1.05001 15.3002 3.25001 12.6002C5.55001 9.70024 8.65001 8.20024 12.35 7.90024C15.05 7.60024 17.55 8.30024 19.85 9.60024C19.95 9.60024 20.05 9.70024 20.15 9.80024C20.355 8.57024 20.55 7.2423 20.55 6.00024C20.55 5.80024 20.45 5.50024 20.35 5.30024C19.95 4.80024 19.85 4.40024 20.15 3.80024C20.45 3.20024 20.85 2.60024 21.25 2.00024C21.3741 1.81414 21.45 1.90024 21.45 1.30024C21.45 1.10024 21.45 0.900244 21.45 0.600244C21.45 0.300244 21.75 0.000244141 22.05 0.000244141C22.35 0.000244141 22.65 0.200244 22.65 0.600244C22.65 1.10024 22.65 1.60024 22.65 1.10024C22.65 1.30024 22.75 1.80024 22.85 2.00024C23.2947 2.74142 23.5724 3.2839 24.05 4.00024C24.25 4.40024 24.25 4.70024 23.95 5.00024C23.55 5.40024 23.45 5.80024 23.55 6.30024C23.607 7.43995 23.85 8.55704 23.85 9.70024ZM14.55 34.8002C13.85 34.8002 13.15 34.8002 12.45 34.8002C12.15 34.8002 11.95 34.8002 11.75 34.5002C11.55 34.2002 11.75 34.0002 11.85 33.7002C12.15 33.3002 12.35 33.0002 12.65 32.6002C13.85 30.7002 15.05 28.8002 16.25 26.9002C16.45 26.6002 16.45 26.5002 16.05 26.5002C15.65 26.5002 15.45 26.2002 15.45 25.9002C15.45 25.6002 15.65 25.3002 16.05 25.3002C16.35 25.3002 16.55 25.3002 16.85 25.3002C16.95 25.3002 17.15 25.2002 17.25 25.1002C17.65 24.2002 18.15 23.3002 18.45 22.4002C18.75 21.7002 18.95 21.0002 19.15 20.3002C19.25 19.9002 19.15 19.8002 18.85 19.8002C18.65 19.8002 18.55 19.8002 18.35 19.8002C17.95 19.8002 17.75 19.5002 17.75 19.2002C17.75 18.8002 17.95 18.6002 18.45 18.6002C18.65 18.6002 18.85 18.6002 19.05 18.6002C19.65 18.6002 19.65 18.6002 19.75 18.0002C19.95 16.3002 20.15 14.6002 20.25 12.9002C20.35 11.6002 20.35 11.6002 19.15 10.9002C16.95 9.70024 14.55 9.30024 12.05 9.60024C8.35001 10.1002 5.55001 12.0002 3.65001 15.2002C2.35001 17.4002 2.05001 19.8002 2.35001 22.4002C2.65001 24.9002 3.75001 27.1002 5.55001 28.9002C7.25001 30.6002 9.05001 32.4002 10.75 34.1002C14.45 37.8002 18.15 41.5002 21.75 45.1002C22.05 45.4002 22.35 45.4002 22.65 45.1002C27.85 40.0002 32.95 34.8002 38.15 29.7002C39.25 28.6002 40.25 27.5002 40.95 26.1002C42.15 23.8002 42.35 21.3002 42.05 18.8002C41.75 16.6002 40.65 14.6002 39.15 13.0002C38.05 11.9002 36.85 11.0002 35.45 10.4002C33.25 9.50024 31.05 9.30024 28.75 9.70024C27.15 10.0002 25.75 10.6002 24.45 11.5002C24.25 11.6002 24.15 11.8002 24.25 12.0002C24.45 13.9002 24.65 15.7002 24.75 17.6002C24.75 17.8002 24.75 18.1002 24.85 18.3002C24.85 18.4002 25.05 18.5002 25.15 18.5002C25.45 18.5002 25.75 18.5002 25.95 18.5002C26.35 18.5002 26.65 18.7002 26.65 19.1002C26.65 19.4002 26.35 19.7002 26.05 19.7002C25.85 19.7002 25.65 19.7002 25.45 19.7002C25.15 19.7002 25.05 19.8002 25.15 20.1002C25.35 20.7002 25.45 21.2002 25.65 21.8002C26.05 22.8002 26.45 23.8002 26.85 24.7002C27.05 25.1002 27.25 25.3002 27.65 25.2002C27.75 25.2002 27.85 25.2002 28.05 25.2002C28.45 25.2002 28.75 25.4002 28.75 25.8002C28.75 26.2002 28.55 26.4002 28.05 26.5002C27.75 26.5002 27.75 26.6002 27.85 26.8002C28.35 27.7002 28.85 28.6002 29.45 29.5002C30.35 30.9002 31.35 32.3002 32.25 33.7002C32.45 33.9002 32.55 34.2002 32.35 34.4002C32.15 34.7002 31.95 34.7002 31.75 34.7002C30.95 34.7002 30.15 34.7002 29.35 34.7002C28.65 34.7002 28.05 34.7002 27.35 34.7002C27.05 34.7002 26.85 34.5002 26.75 34.2002C26.55 33.6002 26.35 33.0002 26.15 32.5002C25.05 30.4002 23.55 29.7002 21.35 30.0002C20.85 30.1002 20.35 30.3002 19.95 30.5002C18.65 31.3002 17.95 32.7002 17.55 34.1002C17.45 34.6002 17.25 34.7002 16.85 34.7002C15.95 34.8002 15.25 34.8002 14.55 34.8002ZM22.05 19.8002C21.65 19.8002 21.15 19.8002 20.75 19.8002C20.65 19.8002 20.45 19.9002 20.45 20.0002C20.35 20.2002 20.35 20.5002 20.25 20.7002C19.95 22.0002 19.45 23.3002 18.85 24.5002C18.25 25.7002 17.65 26.9002 16.95 28.1002C15.95 29.8002 14.85 31.4002 13.75 33.1002C13.65 33.2002 13.65 33.3002 13.65 33.4002C13.75 33.4002 13.85 33.5002 13.95 33.5002C14.55 33.5002 15.25 33.5002 15.85 33.5002C16.05 33.5002 16.25 33.4002 16.25 33.2002C16.45 32.8002 16.65 32.3002 16.85 31.9002C17.35 30.9002 17.95 30.1002 18.85 29.5002C20.35 28.6002 21.95 28.4002 23.55 28.9002C24.95 29.3002 26.05 30.2002 26.75 31.5002C27.05 32.0002 27.25 32.6002 27.55 33.1002C27.65 33.3002 27.75 33.4002 27.95 33.4002C28.65 33.4002 29.35 33.4002 30.05 33.4002C30.15 33.4002 30.35 33.4002 30.35 33.3002C30.35 33.2002 30.35 33.1002 30.25 33.0002C29.65 32.1002 28.95 31.1002 28.35 30.2002C26.95 28.0002 25.75 25.8002 24.75 23.5002C24.25 22.3002 23.95 21.1002 23.55 19.9002C23.45 19.7002 23.45 19.6002 23.25 19.6002C22.85 19.8002 22.45 19.8002 22.05 19.8002ZM21.25 12.7002C21.15 13.5002 21.05 14.2002 21.05 14.9002C20.95 16.0002 20.85 17.1002 20.65 18.1002C20.65 18.4002 20.65 18.5002 20.95 18.5002C21.65 18.5002 22.35 18.5002 22.95 18.5002C23.25 18.5002 23.35 18.4002 23.25 18.1002C23.15 17.1002 22.95 16.1002 22.85 15.0002C22.75 14.2002 22.65 13.5002 22.65 12.6002C22.25 13.2002 21.75 13.2002 21.25 12.7002ZM22.05 2.70024L21.0291 4.60024C21.0291 4.60024 21.7575 5.22276 21.85 5.50024C21.85 5.50024 21.648 8.8303 21.55 10.3002C21.55 10.6002 21.75 10.8002 21.95 10.9002C22.15 11.0002 22.35 10.9002 22.55 10.8002C22.75 10.6002 22.75 10.4002 22.75 10.2002C22.65 7.70024 22.25 5.50024 22.25 5.50024L23.25 4.50024L22.05 2.70024Z"
          fill="#3F4255"/>
    <path 
          d="M11.15 12.1002C11.65 12.1002 12.05 12.5002 12.05 12.9002C12.15 13.3002 11.85 13.6002 11.45 13.8002C10.85 14.0002 10.25 14.2002 9.65 14.6002C7.45 16.0002 6.15 18.0002 6.15 20.6002C6.15 21.3002 6.25 22.1002 6.35 22.8002C6.35 23.2002 6.05 23.7002 5.65 23.8002C5.25 23.9002 4.75 23.7002 4.65 23.2002C4.35 22.3002 4.25 21.3002 4.25 20.4002C4.35 19.0002 4.75 17.7002 5.35 16.5002C6.45 14.6002 7.95 13.2002 9.95 12.4002C10.45 12.3002 10.85 12.2002 11.15 12.1002Z"
          fill="#3F4255"/>
    <path 
          d="M22.05 26.8002C21.55 26.8002 20.95 26.8002 20.45 26.8002C19.95 26.8002 19.65 26.5002 19.75 26.0002C19.95 25.2002 20.15 24.4002 20.35 23.7002C20.45 23.1002 20.55 22.5002 20.65 21.8002C20.75 21.4002 20.85 21.1002 21.35 21.1002C21.85 21.1002 22.35 21.1002 22.75 21.1002C23.15 21.1002 23.35 21.3002 23.45 21.7002C23.75 23.1002 24.05 24.5002 24.35 26.0002C24.45 26.6002 24.25 26.9002 23.65 26.9002C23.05 26.8002 22.55 26.8002 22.05 26.8002ZM21.95 25.5002C22.15 25.5002 22.45 25.5002 22.65 25.5002C22.85 25.5002 22.85 25.4002 22.85 25.2002C22.65 24.3002 22.45 23.5002 22.25 22.6002C22.25 22.4002 22.25 22.2002 21.95 22.2002C21.65 22.2002 21.65 22.4002 21.65 22.6002C21.55 23.3002 21.45 23.9002 21.25 24.6002C21.15 25.5002 21.05 25.5002 21.95 25.5002Z"
          fill="#3F4255"/>
    <path 
          d="M32.55 11.2002C32.05 11.2002 31.65 11.6002 31.65 12.0002C31.55 12.4002 31.85 12.7002 32.25 12.9002C32.85 13.1002 33.45 13.3002 34.05 13.7002C36.25 15.1002 37.55 17.1002 37.55 19.7002C37.55 20.4002 37.45 21.2002 37.35 21.9002C37.35 22.3002 37.65 22.8002 38.05 22.9002C38.45 23.0002 38.95 22.8002 39.05 22.3002C39.35 21.4002 39.45 20.4002 39.45 19.5002C39.35 18.1002 38.95 16.8002 38.35 15.6002C37.25 13.7002 35.75 12.3002 33.75 11.5002C33.25 11.4002 32.85 11.3002 32.55 11.2002Z"
          fill="white"/>
</svg>
