<svg width="47" height="48" viewBox="0 0 47 48" xmlns="http://www.w3.org/2000/svg">
    <path transform="translate(0,14.5)"
          d="M3.72716 0.000244141C1.89525 0.000244141 0.49109 1.62776 0.759554 3.43989L3.20667 19.9579C2.59463 21.1734 2.24998 22.5466 2.24998 24.0002C2.24998 28.9708 6.27941 33.0002 11.25 33.0002C15.1686 33.0002 18.5023 30.4958 19.7379 27.0002H28.7621C29.9976 30.4958 33.3313 33.0002 37.25 33.0002C42.2205 33.0002 46.25 28.9708 46.25 24.0002C46.25 21.1361 44.9121 18.5844 42.8271 16.9361L40.5939 7.65971C39.5123 3.16681 35.4929 0.000244141 30.8717 0.000244141H17.25H3.72716Z"
          fill="#FFE145"/>
    <path d="M46.5 40.5003C46.5 38.0463 45.1658 35.8218 43.0605 34.6338C43.3455 33.7563 43.5 32.8323 43.5 31.8835C43.5 28.204 41.1847 24.8628 37.7385 23.5705L37.5 23.4805V22.0833C37.9432 22.3413 38.451 22.5003 39 22.5003H45V16.5003H39C38.451 16.5003 37.9432 16.6593 37.5 16.9173V16.5003C37.5 15.2995 36.9172 14.1775 35.9595 13.4763C35.7653 12.2193 34.6852 11.2503 33.375 11.2503L24.2033 11.2495C25.2765 10.3053 26.0093 8.98753 26.196 7.49878H28.4978C29.7383 7.49878 30.7478 6.48928 30.7478 5.24878C30.7478 4.00828 29.7383 2.99878 28.4978 2.99878H24.9172C23.7825 1.58728 22.071 0.748779 20.2477 0.748779C16.9395 0.748779 14.2477 3.44053 14.2477 6.74878C14.2477 8.97328 15.4672 10.9143 17.2703 11.9508C15.7035 12.7255 14.4817 14.0875 13.8915 15.7503H2.25C1.0095 15.7503 0 16.7598 0 18.0003V27.0003C0 28.2408 1.0095 29.2503 2.25 29.2503H4.58325C3.6075 30.2043 3 31.5318 3 33.0003V34.5198C2.09475 35.2045 1.5 36.28 1.5 37.5003C1.5 39.568 3.18225 41.2503 5.25 41.2503H6.82575C7.1745 42.9595 8.68875 44.2503 10.5 44.2503C12.3112 44.2503 13.8255 42.9595 14.1742 41.2503H34.5758C34.9245 42.9595 36.4388 44.2503 38.25 44.2503C40.0612 44.2503 41.5755 42.9595 41.9242 41.2503H46.5V40.5003ZM42 31.8835C42 33.8545 41.2327 35.7078 39.8385 37.1013L37.1895 39.7503H34.5V16.237C34.956 16.0188 35.337 15.676 35.601 15.2493C35.8485 15.616 36 16.045 36 16.5003V24.52L37.212 24.9745C40.0763 26.0485 42 28.825 42 31.8835ZM31.4123 37.0443L29.28 27.9813C28.725 25.6195 26.82 23.8353 24.4253 23.4363L24 23.365L23.9985 16.5003H33V39.7503H30.972C31.3125 39.2245 31.4993 38.614 31.4985 37.9728V37.7928C31.4985 37.5438 31.4692 37.2925 31.4123 37.0443ZM43.5 21.0003H42V18.0003H43.5V21.0003ZM39 18.0003H40.5V21.0003H39C38.1727 21.0003 37.5 20.3275 37.5 19.5003C37.5 18.673 38.1727 18.0003 39 18.0003ZM29.2485 5.24878C29.2485 5.66203 28.9125 5.99878 28.4985 5.99878H22.212L22.3403 5.74303C22.7243 4.97578 23.4953 4.49878 24.3533 4.49878H28.4985C28.9125 4.49878 29.2485 4.83553 29.2485 5.24878ZM20.2485 2.24878C21.2797 2.24878 22.263 2.60953 23.0513 3.23803C22.1737 3.56128 21.4342 4.19953 20.9985 5.07178L20.535 5.99878H15.816C16.1752 3.87403 18.0232 2.24878 20.2485 2.24878ZM15.816 7.49878H24.6803C24.3218 9.62353 22.4737 11.2488 20.2477 11.2488C18.0217 11.2488 16.1752 9.62353 15.816 7.49878ZM14.9985 18.0003C14.9985 15.1045 17.3542 12.7488 20.25 12.7488L33.375 12.7503C33.9953 12.7503 34.5 13.255 34.5 13.8753C34.5 14.4955 33.9953 15.0003 33.375 15.0003H19.5V16.5003H22.4985L22.5 24.6355L24.1792 24.916C25.9747 25.2145 27.4035 26.5533 27.8197 28.324L29.9513 37.3848C29.9828 37.5205 29.9985 37.657 29.9985 37.7928V37.9735C29.9985 38.4483 29.814 38.8945 29.4788 39.2298C29.1427 39.5658 28.6973 39.7503 28.2225 39.7503C27.4058 39.7503 26.6978 39.1968 26.499 38.4048L24.546 30.5905C24.1275 28.918 22.632 27.7503 20.9078 27.7503L18.7477 27.7495C16.68 27.7495 14.9985 26.0673 14.9985 23.9995V18.0003ZM25.4707 39.7503H22.5V33.0003C22.5 31.5325 21.8925 30.205 20.9183 29.251C21.948 29.2555 22.8412 29.9545 23.0917 30.9535L25.0448 38.7678C25.1333 39.1248 25.2802 39.4548 25.4707 39.7503ZM2.25 27.7503C1.836 27.7503 1.5 27.4143 1.5 27.0003V18.0003C1.5 17.587 1.836 17.2503 2.25 17.2503H13.5427C13.515 17.497 13.4985 17.7468 13.4985 18.0003V23.9995C13.4985 25.468 14.1067 26.7963 15.0817 27.7503H14.25H8.25H2.25ZM10.5 42.7503C9.5235 42.7503 8.6985 42.121 8.388 41.2503H12.6112C12.3015 42.121 11.4765 42.7503 10.5 42.7503ZM18 39.7503H5.25C4.0095 39.7503 3 38.7408 3 37.5003C3 36.2598 4.0095 35.2503 5.25 35.2503H15.75C16.9905 35.2503 18 36.2598 18 37.5003V39.7503ZM15.75 33.7503H5.25C4.9935 33.7503 4.74225 33.7765 4.5 33.826V33.0003C4.5 30.9325 6.18225 29.2503 8.25 29.2503H14.25H17.25C19.3177 29.2503 21 30.9325 21 33.0003V39.7503H19.5V37.5003C19.5 35.4325 17.8177 33.7503 15.75 33.7503ZM38.25 42.7503C37.2735 42.7503 36.4485 42.121 36.138 41.2503H40.3612C40.0515 42.121 39.2265 42.7503 38.25 42.7503ZM39.3105 39.7503L40.899 38.1618C41.5403 37.5205 42.069 36.7975 42.4808 36.0183C43.818 36.8328 44.724 38.2015 44.9468 39.7503H39.3105Z"
          fill="#313030"/>
</svg>
