<?xml version="1.0" standalone="no"?>
<!DOCTYPE svg PUBLIC "-//W3C//DTD SVG 20010904//EN"
 "http://www.w3.org/TR/2001/REC-SVG-20010904/DTD/svg10.dtd">
<svg version="1.0" xmlns="http://www.w3.org/2000/svg"
 width="200.000000pt" height="100.000000pt" viewBox="0 0 947.000000 251.000000"
 preserveAspectRatio="xMidYMid meet">
<metadata>
Created by potrace 1.16, written by Peter Selinger 2001-2019
</metadata>
<g transform="translate(0.000000,251.000000) scale(0.100000,-0.100000)"
fill="#0047AB" stroke="none">
<path d="M0 1255 l0 -1255 4735 0 4735 0 0 1255 0 1255 -4735 0 -4735 0 0
-1255z m4971 942 l57 -132 141 -25 c78 -13 141 -27 141 -31 0 -4 -47 -48 -105
-99 -58 -51 -105 -100 -105 -109 1 -9 9 -73 19 -143 9 -71 14 -128 10 -128 -4
0 -62 31 -127 70 l-120 70 -127 -61 c-70 -33 -130 -58 -132 -55 -5 4 5 61 31
181 9 39 16 78 16 88 0 10 -43 63 -97 118 -53 54 -94 101 -92 103 2 2 58 9
124 16 66 6 130 13 142 16 19 4 73 90 142 227 7 15 16 27 20 27 3 0 31 -60 62
-133z m-3964 -227 c93 -13 163 -35 343 -107 145 -59 211 -71 324 -63 77 6 115
-6 140 -41 26 -37 19 -65 -39 -167 -62 -108 -110 -248 -126 -365 -14 -98 -5
-158 28 -198 24 -28 30 -30 82 -27 50 3 57 1 66 -19 5 -13 12 -23 16 -23 8 0
59 221 59 257 0 17 -9 42 -20 56 l-20 25 32 20 c46 29 180 72 221 72 40 0 89
-35 112 -81 l15 -28 105 51 c149 72 191 70 286 -19 l47 -43 108 52 c125 61
188 69 258 32 91 -47 100 -104 48 -320 -18 -72 -32 -136 -32 -142 0 -19 31
-42 56 -42 24 0 24 2 18 48 -8 61 16 157 57 228 112 197 436 312 616 220 124
-62 141 -197 39 -299 -59 -59 -175 -107 -299 -122 -60 -8 -67 -16 -42 -52 36
-51 145 -38 282 34 63 33 93 44 113 39 28 -5 28 -5 50 92 35 149 36 178 12
212 -25 33 -24 34 64 78 180 90 294 73 294 -44 l0 -47 53 50 c63 59 98 79 167
94 64 14 111 5 149 -27 28 -23 32 -24 53 -10 13 8 56 24 96 36 85 26 132 21
169 -16 31 -32 29 -57 -21 -268 -20 -82 -36 -159 -36 -172 0 -35 32 -63 65
-57 25 5 26 8 20 52 -8 58 15 162 51 234 54 105 189 207 320 241 75 19 195 20
247 2 119 -43 176 -145 131 -239 -25 -53 -77 -82 -145 -82 -96 0 -153 60 -131
139 6 23 9 42 7 44 -8 8 -78 -65 -102 -105 -42 -73 -23 -152 51 -207 40 -31
141 -28 220 6 l59 25 22 70 c31 98 75 170 143 235 89 85 166 119 271 120 40 0
64 -8 122 -40 l72 -40 80 39 c83 40 107 42 155 13 31 -20 29 -48 -24 -266 -45
-182 -46 -190 -29 -208 18 -20 43 -24 82 -14 19 5 26 25 56 153 53 222 51 204
23 234 l-25 27 24 16 c43 28 188 74 234 74 37 0 49 -6 81 -37 20 -21 39 -45
42 -53 4 -12 20 -7 85 22 44 20 101 42 127 49 103 26 216 -31 232 -115 5 -30
-2 -73 -30 -182 -20 -78 -36 -153 -36 -166 0 -31 18 -48 51 -48 25 0 26 3 32
68 14 158 117 312 254 378 80 39 208 46 277 15 51 -22 48 -25 65 49 5 25 19
83 30 129 21 89 19 103 -12 138 -10 12 -16 26 -13 32 4 5 43 24 89 42 141 56
254 43 281 -33 7 -19 -1 -66 -28 -179 -21 -85 -62 -254 -92 -377 -30 -123 -54
-238 -54 -256 0 -43 19 -58 66 -54 l38 3 40 168 40 167 -23 31 c-12 17 -20 36
-17 44 11 29 177 85 250 85 44 0 91 -22 106 -49 16 -31 12 -70 -20 -209 -37
-162 -38 -189 -6 -203 36 -17 74 -3 96 33 10 18 30 79 44 137 l26 105 -20 34
c-11 18 -20 37 -20 41 0 12 117 63 177 77 68 16 135 2 163 -33 34 -43 34 -40
-66 -458 -61 -254 -92 -328 -169 -408 -101 -106 -222 -158 -364 -158 -177 1
-296 73 -316 192 -9 51 25 120 83 167 l42 35 59 -64 c53 -58 62 -64 98 -64 30
0 51 9 84 34 42 33 132 131 126 138 -2 2 -31 -8 -65 -22 -147 -60 -232 -55
-305 18 l-40 40 -41 -21 c-71 -38 -127 -52 -198 -52 -115 0 -188 55 -188 143
0 20 -3 37 -6 37 -3 0 -34 -22 -69 -50 -80 -64 -168 -110 -209 -110 -44 1
-107 32 -139 69 l-27 32 -63 -31 c-132 -65 -276 -63 -343 4 -49 49 -52 86 -16
244 29 126 30 138 15 154 -21 24 -64 23 -96 -3 -28 -21 -40 -55 -77 -210 -44
-181 -72 -209 -215 -209 -73 0 -96 -4 -124 -21 -18 -11 -35 -19 -37 -17 -2 2
3 25 11 51 8 26 12 47 10 47 -3 0 -19 -9 -37 -20 -47 -29 -153 -60 -202 -60
-85 1 -156 65 -156 141 0 22 -3 39 -6 39 -4 0 -37 -31 -73 -68 -78 -81 -138
-112 -214 -112 -66 0 -125 35 -158 94 -12 23 -23 42 -24 44 -2 2 -37 -20 -79
-48 -196 -134 -405 -137 -551 -9 l-35 31 -35 -26 c-114 -87 -277 -121 -364
-77 -50 26 -81 73 -81 123 0 30 36 206 56 272 5 15 -1 14 -41 -10 -90 -52
-185 -32 -211 45 l-11 33 -51 -57 c-65 -74 -105 -150 -131 -249 -34 -134 -69
-163 -206 -172 -59 -3 -101 -12 -127 -25 -21 -11 -38 -17 -38 -13 0 9 39 160
46 179 4 10 -19 -3 -53 -29 -75 -57 -188 -111 -261 -127 -31 -6 -92 -9 -137
-7 -91 5 -155 29 -220 83 -41 33 -43 34 -59 16 -24 -26 -116 -69 -177 -82
-140 -30 -269 36 -269 138 0 19 14 88 31 153 33 130 31 154 -16 166 -34 8 -71
-18 -90 -63 -9 -20 -28 -92 -44 -159 -43 -190 -63 -209 -211 -209 -76 0 -102
-4 -124 -18 -15 -10 -30 -16 -34 -13 -3 4 2 39 12 79 46 188 76 323 76 347 0
71 -82 66 -125 -9 -4 -7 -22 -73 -40 -146 -18 -73 -39 -145 -46 -161 -23 -47
-70 -64 -179 -64 -71 0 -101 -4 -118 -16 -13 -9 -26 -13 -29 -10 -5 4 25 147
43 206 3 8 -3 0 -13 -17 -102 -181 -340 -218 -439 -69 -26 40 -34 123 -21 220
10 82 10 89 -8 102 -26 19 -69 17 -93 -3 -11 -10 -51 -78 -88 -150 -99 -196
-188 -291 -338 -363 -284 -135 -622 -60 -731 163 -114 234 81 528 388 584 92
16 146 13 182 -11 33 -21 31 -39 -6 -90 -36 -51 -33 -83 13 -121 40 -34 71
-40 131 -26 103 24 192 103 327 292 69 96 190 244 215 262 17 12 -13 25 -79
31 -82 9 -152 -10 -180 -47 l-21 -29 24 -19 c13 -10 31 -19 40 -19 23 0 41
-20 41 -46 0 -29 -68 -90 -134 -120 -168 -77 -371 -27 -452 111 -40 69 -44
161 -11 237 48 108 168 195 297 217 30 5 56 9 57 10 1 0 37 -4 80 -9z"/>
<path d="M1435 1457 c-60 -78 -111 -146 -113 -152 -1 -5 8 -10 20 -10 13 -1
35 -4 49 -8 25 -6 28 -2 58 62 35 76 102 244 98 247 -1 1 -51 -62 -112 -139z"/>
<path d="M6182 1197 c-54 -31 -77 -102 -46 -145 33 -48 108 -16 138 59 14 34
14 45 4 67 -15 31 -59 40 -96 19z"/>
<path d="M7954 1141 c-90 -55 -59 -200 35 -161 68 28 98 124 51 162 -28 23
-47 23 -86 -1z"/>
</g>
</svg>
