<svg width="840" height="394" viewBox="0 0 840 394" xmlns="http://www.w3.org/2000/svg">
    <path d="M293.672 228.047L284.812 243.469L295.312 249.047L305.156 253.641L313.031 258.891L321.234 263.812L334.031 268.078L341.25 257.25L347.812 239.531L344.859 230.672L322.547 221.812L314.672 215.578L312.047 209.016L293.672 228.047Z"
          fill="#FFE145"/>
    <path d="M264.141 249.375C266.351 251.708 271.688 252.656 271.688 252.656L278.578 242.812L267.094 234.609C267.094 234.609 265.413 231.179 265.453 229.031C265.491 227.006 266.438 224.438 266.438 224.438L261.188 224.766L262.172 228.375L261.188 237.891C261.188 237.891 260.786 241.993 261.516 244.453C262.135 246.542 262.642 247.794 264.141 249.375Z"
          fill="#FFE145"/>
    <path d="M258.234 224.438L219.188 223.781L214.594 239.859L214.266 250.031L218.859 257.578C218.859 257.578 219.002 263.137 220.5 266.438C221.782 269.262 222.889 270.818 225.094 273C228.783 276.65 231.446 278.921 236.25 280.219C238.367 280.791 239.97 280.401 242.156 280.219C246.498 279.856 251.016 275.625 251.016 275.625L264.469 262.828L270.047 254.953C270.047 254.953 264.311 253.323 261.844 250.688C260.04 248.761 258.562 244.781 258.562 244.781L259.219 236.25L259.875 228.375L258.234 224.438Z"
          fill="#FFE145"/>
    <path d="M297.609 153.891L261.844 136.828L248.391 159.141L243.141 165.375L238.875 169.641L231 172.922L225.75 177.516L221.812 185.719L216.382 205.932C216.069 207.098 216.024 208.319 216.249 209.505L218.531 221.484L246.422 221.156L247.028 221.25C251.402 221.922 255.491 218.916 256.154 214.541L256.594 211.641L261.188 205.406L272.016 196.875L274.312 190.312L279.562 182.766L289.406 167.344L297.609 153.891Z"
          fill="#FFE145"/>
    <path d="M261.844 134.859L298.266 152.25L302.859 142.406L315.984 130.594L324.188 127.312L337.969 114.516L348.141 108.281L361.216 102.635C362.116 102.246 363.081 102.026 364.061 101.986L378.656 101.391L416.391 100.734L414.422 53.8125L400.641 53.1562L400.371 57.3277C400.158 60.6396 397.296 63.1489 393.985 62.9282L390.141 62.6719L395.062 57.0938L394.08 54.0066C393.231 51.3367 391.474 49.0482 389.114 47.5378L384.562 44.625L373.406 61.6875L363.562 67.9219L338.625 78.75L331.078 82.3594L315 96.1406L297.281 105.656L289.078 111.234L284.156 116.156L273.656 124.031L261.844 134.859Z"
          fill="#FFE145"/>
    <path d="M269.719 233.953L280.875 241.5L293.016 223.125L316.969 194.25L326.484 187.688L357.328 186.047C357.328 186.047 372.917 194.682 382.594 197.531C387.367 198.937 393.094 199.828 393.094 199.828L400.969 203.109L419.335 213.774C420.559 214.484 421.312 215.793 421.312 217.209C421.312 219.12 422.002 220.967 423.253 222.411L429.844 230.016L462 268.078L462.817 268.375C464.103 268.843 465.432 267.797 465.281 266.438L466.266 265.781C466.266 265.781 469.168 268.521 470.531 268.734C473.334 269.173 478.406 266.438 478.406 266.438C478.406 266.438 481.631 265.246 483.656 262.5C484.439 261.438 484.641 259.547 485.297 259.547C485.825 259.547 486.609 259.875 486.609 259.875C486.609 259.875 487.669 258.533 490.219 256.594C493.054 254.437 496.125 253.312 497.437 251.016C499.705 247.048 499.734 237.562 500.719 226.078C500.823 224.867 501.062 223.456 501.339 222.097C502.076 218.486 501.895 214.713 500.443 211.326L499.734 209.672L500.391 198.516L499.078 185.062L498.75 169.312L491.616 154.536C490.296 151.802 487.989 149.669 485.159 148.569L483.656 147.984C483.656 147.984 476.437 141.094 475.781 138.469C473.779 130.459 471.271 118.277 469.8 110.935C469.066 107.271 465.912 104.586 462.178 104.466L458.391 104.344L437.391 104.016V106.314C437.391 107.406 436.515 108.296 435.423 108.313L419.148 108.58C418.144 108.597 417.294 107.844 417.189 106.846C416.924 104.325 414.759 102.435 412.225 102.512L362.906 104.016C362.906 104.016 347.636 110.566 339.281 116.812C333.689 120.994 332.218 124.646 326.156 128.625C323.042 130.669 321.715 129.741 318.281 132.234C313.147 135.963 310.406 139.125 305.812 143.719C303.893 145.639 302.859 150.938 302.859 150.938L300.562 155.531C300.562 155.531 303.456 155.678 303.844 157.172C304.623 160.174 299.2 160.957 296.953 163.406C294.459 166.125 292.359 171.281 292.359 171.281C292.359 171.281 287.016 179.994 284.484 185.391C277.86 199.514 268.734 221.484 268.734 221.484L269.062 223.781C269.062 223.781 267.447 227.357 267.75 230.016C267.971 231.955 269.719 233.953 269.719 233.953Z"
          fill="#FFE145"/>
    <path d="M343.219 257.25L336 268.406L396.375 289.406L406.219 285.469H411.469L416.062 288.75L419.016 290.719L420.328 296.953H422.625L428.859 294.328L452.484 280.547L462.656 274.312L456.75 267.75L436.406 242.484L419.344 222.141L410.156 217.547L392.438 207.047L386.859 201.797L377.344 199.5L372.094 195.891L356.344 189H350.109H344.531L332.719 189.328L328.453 190.641L323.203 192.938L315.328 199.5L312.703 207.047L316.312 214.922L324.516 221.156L346.172 229.031L349.453 239.203L343.219 257.25Z"
          fill="#FFE145"/>
    <path d="M417.375 54.4688L419.672 99.75L422.297 100.734L433.453 101.062L435.75 100.406L443.625 102.375H457.406L462.984 101.719L494.484 56.7656L488.906 52.1719L476.109 46.2656L454.125 51.8438L443.625 56.4375L430.172 56.1094L417.375 54.4688Z"
          fill="#FFE145"/>
    <path d="M265.781 169.947L259.591 163.756C256.178 160.344 256.178 154.798 259.591 151.386C261.297 149.68 263.539 148.827 265.781 148.827C268.023 148.827 270.266 149.68 271.972 151.386C275.384 154.798 275.384 160.344 271.972 163.756L265.781 169.947ZM265.781 160.562C267.593 160.562 269.063 159.093 269.063 157.281C269.063 155.469 267.593 154 265.781 154C263.969 154 262.5 155.469 262.5 157.281C262.5 159.093 263.969 160.562 265.781 160.562Z"
    />
    <path d="M473.156 76.1032L466.966 69.9125C463.553 66.5 463.553 60.9547 466.966 57.5422C468.672 55.836 470.914 54.9828 473.156 54.9828C475.398 54.9828 477.641 55.836 479.347 57.5422C482.759 60.9547 482.759 66.5 479.347 69.9125L473.156 76.1032ZM473.156 66.7187C474.968 66.7187 476.437 65.2497 476.437 63.4375C476.437 61.6253 474.968 60.1562 473.156 60.1562C471.344 60.1562 469.875 61.6253 469.875 63.4375C469.875 65.2497 471.344 66.7187 473.156 66.7187Z"
    />
    <path d="M468.562 246.072L462.372 239.881C458.959 236.469 458.959 230.923 462.372 227.511C464.078 225.805 466.32 224.952 468.562 224.952C470.805 224.952 473.047 225.805 474.753 227.511C478.166 230.923 478.166 236.469 474.753 239.881L468.562 246.072ZM468.562 236.687C470.375 236.687 471.844 235.218 471.844 233.406C471.844 231.594 470.375 230.125 468.562 230.125C466.75 230.125 465.281 231.594 465.281 233.406C465.281 235.218 466.75 236.687 468.562 236.687Z"
    />
    <path d="M394.406 269.697L388.216 263.506C384.803 260.094 384.803 254.548 388.216 251.136C389.922 249.43 392.164 248.577 394.406 248.577C396.648 248.577 398.891 249.43 400.597 251.136C404.009 254.548 404.009 260.094 400.597 263.506L394.406 269.697ZM394.406 260.312C396.218 260.312 397.687 258.843 397.687 257.031C397.687 255.219 396.218 253.75 394.406 253.75C392.594 253.75 391.125 255.219 391.125 257.031C391.125 258.843 392.594 260.312 394.406 260.312Z"
    />
    <path d="M325.5 102.353L319.309 96.1625C315.897 92.75 315.897 87.2047 319.309 83.7922C321.016 82.0859 323.258 81.2328 325.5 81.2328C327.742 81.2328 329.984 82.0859 331.691 83.7922C335.103 87.2047 335.103 92.75 331.691 96.1625L325.5 102.353ZM325.5 92.9687C327.312 92.9687 328.781 91.4996 328.781 89.6874C328.781 87.8752 327.312 86.4062 325.5 86.4062C323.688 86.4062 322.219 87.8752 322.219 89.6874C322.219 91.4996 323.688 92.9687 325.5 92.9687Z"
    />
    <path d="M347.156 175.853L340.966 169.662C337.553 166.25 337.553 160.705 340.966 157.292C342.672 155.586 344.914 154.733 347.156 154.733C349.398 154.733 351.641 155.586 353.347 157.292C356.759 160.705 356.759 166.25 353.347 169.662L347.156 175.853ZM347.156 166.469C348.968 166.469 350.437 165 350.437 163.187C350.437 161.375 348.968 159.906 347.156 159.906C345.344 159.906 343.875 161.375 343.875 163.187C343.875 165 345.344 166.469 347.156 166.469Z"
    />
    <path d="M378.656 127.947L372.466 121.756C369.053 118.344 369.053 112.798 372.466 109.386C374.172 107.68 376.414 106.827 378.656 106.827C380.898 106.827 383.141 107.68 384.847 109.386C388.259 112.798 388.259 118.344 384.847 121.756L378.656 127.947ZM378.656 118.562C380.468 118.562 381.937 117.093 381.937 115.281C381.937 113.469 380.468 112 378.656 112C376.844 112 375.375 113.469 375.375 115.281C375.375 117.093 376.844 118.562 378.656 118.562Z"
    />
    <path d="M437.062 165.353L430.872 159.162C427.459 155.75 427.459 150.205 430.872 146.792C432.578 145.086 434.82 144.233 437.062 144.233C439.305 144.233 441.547 145.086 443.253 146.792C446.666 150.205 446.666 155.75 443.253 159.162L437.062 165.353ZM437.062 155.969C438.875 155.969 440.344 154.5 440.344 152.687C440.344 150.875 438.875 149.406 437.062 149.406C435.25 149.406 433.781 150.875 433.781 152.687C433.781 154.5 435.25 155.969 437.062 155.969Z"
    />
</svg>
